<svg data-v-0dd9719b="" version="1.0" xmlns="http://www.w3.org/2000/svg" xmlns:xlink="http://www.w3.org/1999/xlink" width="100%" height="100%" viewBox="0 0 340.000000 250.000000" preserveAspectRatio="xMidYMid meet" color-interpolation-filters="sRGB" style="margin: auto;"> <rect data-v-0dd9719b="" x="0" y="0" width="100%" height="100%" fill="#fff" fill-opacity="1" class="background"></rect> <rect data-v-0dd9719b="" x="0" y="0" width="100%" height="100%" fill="url(#watermark)" fill-opacity="1" class="watermarklayer"></rect> <g data-v-0dd9719b="" fill="#a50082" class="icon-text-wrapper icon-svg-group iconsvg" transform="translate(47.26499938964844,99.31814575195312)"><g class="iconsvg-imagesvg" transform="translate(0,0)"><g><rect fill="#a50082" fill-opacity="0" stroke-width="2" x="0" y="0" width="60" height="51.36370640505419" class="image-rect"></rect> <svg x="0" y="0" width="60" height="51.36370640505419" filtersec="colorsb895681205" class="image-svg-svg primary" style="overflow: visible;"><svg xmlns="http://www.w3.org/2000/svg" viewBox="0 0 491.80999755859375 421.0199890136719"><g><g fill-rule="evenodd"><path d="M245.9 0l245.91 421C308 154.37 145.3 170.63 0 421z" fill="#e60012"></path><path d="M245.9 0c-144.24 247-71.25 421 245.91 421H0z" fill="#fdd000"></path><path d="M245.91 0C390.15 247 317.16 421 0 421h491.81z" fill="#5dc2d0"></path><path d="M246 .16L491.81 421c-61.45-89.16-120.54-146.64-177.42-174.36C324.64 179.06 301.36 95 246 .16z" fill="#a50082"></path><path d="M245.9 360.25c52.29 39 133.83 60.77 245.91 60.77H0c112.08-.02 193.62-21.76 245.9-60.77z" fill="#abcd03"></path><path d="M245.9 0c-53.23 91.14-76.84 172.33-69.55 238.53C114.83 262.58 56.12 324.32 0 421z" fill="#f08437"></path></g></g></svg></svg> <!----></g></g> <g transform="translate(67,17.44685459136963)"><g data-gra="path-name" fill-rule="" class="tp-name iconsvg-namesvg"><g transform="scale(1)"><g><path d="M4.71-16.02L7.45-10.08 10.21-16.02 14.9-16.02 9.63-6.26 9.63 0 5.27 0 5.27-6.13 0-16.02 4.71-16.02ZM20.98 0L16.63 0 16.63-16.02 20.98-16.02 20.98 0ZM28.71-6.02L28.71 0 24.45 0 24.45-16.02 33.91-16.02 33.91-12.55 28.71-12.55 28.71-9.49 33.51-9.49 33.51-6.02 28.71-6.02ZM51.11 0L46.37 0 45.58-3 40.38-3 39.57 0 34.81 0 40.04-16.09 45.81-16.09 51.11 0ZM41.28-6.55L44.68-6.55 43.99-9.18Q43.75-10.06 43.41-11.45 43.06-12.84 42.95-13.44L42.95-13.44Q42.86-12.89 42.56-11.6 42.27-10.32 41.28-6.55L41.28-6.55ZM68.09-16.02L68.09 0 62.41 0 56.56-11.29 56.46-11.29Q56.67-8.62 56.67-7.22L56.67-7.22 56.67 0 52.84 0 52.84-16.02 58.49-16.02 64.32-4.89 64.39-4.89Q64.23-7.31 64.23-8.78L64.23-8.78 64.23-16.02 68.09-16.02ZM84.45-12.48L84.45 0 80.12 0 80.12-12.48 76.21-12.48 76.21-16.02 88.35-16.02 88.35-12.48 84.45-12.48ZM96.07-5.83L94.97-5.83 94.97 0 90.64 0 90.64-16.02 95.89-16.02Q102.42-16.02 102.42-11.29L102.42-11.29Q102.42-8.5 99.7-6.98L99.7-6.98 104.37 0 99.46 0 96.07-5.83ZM94.97-12.74L94.97-9.08 95.78-9.08Q98.05-9.08 98.05-11.09L98.05-11.09Q98.05-12.74 95.82-12.74L95.82-12.74 94.97-12.74ZM120.39 0L115.66 0 114.87-3 109.66-3 108.85 0 104.1 0 109.32-16.09 115.1-16.09 120.39 0ZM110.56-6.55L113.97-6.55 113.28-9.18Q113.04-10.06 112.69-11.45 112.35-12.84 112.24-13.44L112.24-13.44Q112.14-12.89 111.85-11.6 111.56-10.32 110.56-6.55L110.56-6.55ZM135.72-8.35L135.72-8.35Q135.72-4.34 133.51-2.17 131.3 0 127.31 0L127.31 0 122.12 0 122.12-16.02 127.67-16.02Q131.52-16.02 133.62-14.05 135.72-12.08 135.72-8.35ZM131.23-8.2L131.23-8.2Q131.23-10.4 130.36-11.46 129.49-12.52 127.71-12.52L127.71-12.52 126.45-12.52 126.45-3.55 127.41-3.55Q129.39-3.55 130.31-4.7 131.23-5.84 131.23-8.2ZM142.94 0L138.59 0 138.59-16.02 142.94-16.02 142.94 0ZM161.66-16.02L161.66 0 155.98 0 150.13-11.29 150.03-11.29Q150.24-8.62 150.24-7.22L150.24-7.22 150.24 0 146.4 0 146.4-16.02 152.06-16.02 157.89-4.89 157.95-4.89Q157.8-7.31 157.8-8.78L157.8-8.78 157.8-16.02 161.66-16.02ZM171.55-6.04L171.55-9.38 178.47-9.38 178.47-0.75Q175.65 0.22 172.27 0.22L172.27 0.22Q168.57 0.22 166.55-1.93 164.53-4.08 164.53-8.05L164.53-8.05Q164.53-11.93 166.74-14.09 168.95-16.25 172.94-16.25L172.94-16.25Q174.46-16.25 175.8-15.97 177.14-15.68 178.14-15.24L178.14-15.24 176.77-11.85Q175.04-12.7 172.97-12.7L172.97-12.7Q171.07-12.7 170.03-11.47 169-10.23 169-7.94L169-7.94Q169-5.7 169.94-4.52 170.87-3.34 172.64-3.34L172.64-3.34Q173.6-3.34 174.41-3.53L174.41-3.53 174.41-6.04 171.55-6.04Z" transform="translate(0, 16.25)"></path></g> <!----> <!----> <!----> <!----> <!----> <!----> <!----></g></g> <!----></g></g><defs v-gra="od"></defs></svg>